<?xml version="1.0" encoding="UTF-8"?>
<!DOCTYPE svg PUBLIC "-//W3C//DTD SVG 1.1//EN" "http://www.w3.org/Graphics/SVG/1.1/DTD/svg11.dtd">
<!-- Creator: CorelDRAW 2019 (64-Bit) -->
<svg xmlns="http://www.w3.org/2000/svg" xml:space="preserve" width="2.7231in" height="2.7231in" version="1.1" style="shape-rendering:geometricPrecision; text-rendering:geometricPrecision; image-rendering:optimizeQuality; fill-rule:evenodd; clip-rule:evenodd"
viewBox="0 0 125.3 125.3"
 xmlns:xlink="http://www.w3.org/1999/xlink"
 xmlns:xodm="http://www.corel.com/coreldraw/odm/2003">
 <defs>
  <style type="text/css">
   <![CDATA[
    .fil1 {fill:none}
    .fil0 {fill:aqua}
   ]]>
  </style>
 </defs>
 <g id="Layer_x0020_1">
  <metadata id="CorelCorpID_0Corel-Layer"/>
  <g id="_2130870004992">
   <path class="fil0" d="M105.71 39.18c0,4.04 -0.01,5.41 -1.54,9.15l-4.84 0.16c0.08,0.06 0.23,0.07 0.28,0.25l1.03 1.05c0.68,0.76 0.67,0.69 1.02,1.56 -3.37,4.4 -10.61,0.99 -13.48,3.61 -1.58,3.43 1.19,6.83 -2.54,12.74 -1.85,2.93 -4.68,5.82 -5.28,9.96 -0.83,5.75 -1.12,8.4 1.05,12.98 1.14,2.4 1.03,3.94 1.76,5.91 1.1,2.94 2.06,2.3 0.3,5.89 -3.98,0.72 -5.59,0.41 -9.9,0.37 0.36,-8.9 -2.9,-14.35 -12.67,-15.12 -0.39,-5.35 -1.79,-8.51 -4.57,-11.21 -2.38,-2.31 -7.02,-4.94 -11.6,-3.71 -0.92,5.29 3.81,1.15 9.13,6.18 5.02,4.74 1.94,8.26 3.97,11.81 2.52,2.51 12.36,-3.05 12.36,12.05l-44.19 0c-4.12,0 -15.76,-0.49 -17.92,-2.67 0.45,-1.3 -0.37,-0.73 1.85,-1.3 9.71,-2.52 12.47,0.37 12.75,-11.41 0.19,-8 3.76,-15.92 7.63,-20.05 5.47,-5.84 7.94,-7.3 16.61,-10.89 6.33,-2.62 12.59,-7.53 14.57,-13.46 0.1,0.08 0.25,0.07 0.3,0.25 0.25,0.93 10.09,12.44 19.9,3.34 2.85,-2.64 4.4,-5.19 4.51,-10.59 0.1,-4.98 0.06,-10.25 -0.03,-15.24 6.18,0.9 6.72,10.55 7.27,11.39 3.88,6.08 12.28,-0.66 12.28,7z"/>
   <path class="fil0" d="M82.6 32.86l0 3.16c0,13.92 -18.54,14.31 -18.54,-0.45 0,-9.6 6.72,-13.04 14.31,-14.82 5.56,-1.3 4.22,-2.03 4.22,12.11z"/>
  </g>
  <circle class="fil1" cx="62.65" cy="62.65" r="62.65"/>
 </g>
</svg>
