<?xml version="1.0" encoding="UTF-8"?>
<!DOCTYPE svg PUBLIC "-//W3C//DTD SVG 1.1//EN" "http://www.w3.org/Graphics/SVG/1.1/DTD/svg11.dtd">
<!-- Creator: CorelDRAW 2019 (64-Bit) -->
<svg xmlns="http://www.w3.org/2000/svg" xml:space="preserve" width="2.7231in" height="2.7231in" version="1.1" style="shape-rendering:geometricPrecision; text-rendering:geometricPrecision; image-rendering:optimizeQuality; fill-rule:evenodd; clip-rule:evenodd"
viewBox="0 0 125.3 125.3"
 xmlns:xlink="http://www.w3.org/1999/xlink"
 xmlns:xodm="http://www.corel.com/coreldraw/odm/2003">
 <defs>
  <style type="text/css">
   <![CDATA[
    .fil1 {fill:none}
    .fil0 {fill:aqua}
   ]]>
  </style>
 </defs>
 <g id="Layer_x0020_1">
  <metadata id="CorelCorpID_0Corel-Layer"/>
  <path class="fil0" d="M15.64 38.44l0 7.09c8.81,35.6 21.14,35.77 41.75,46.85 0.1,5.12 0.96,7.79 -6.44,10.11 -4.77,1.51 -9.99,1.45 -15.28,1.42l0 9.93 53.59 -0.01 -0.01 -9.92c-5.33,0.04 -16.75,0.46 -20.72,-4.16 -1.44,-1.68 -1.05,-5.19 -0.97,-7.83 16.84,-4.94 37.99,-21.01 40.94,-39.28 0.33,-2.02 0.78,-8.89 1.16,-9.98l0 -4.04 -18.78 -0.13 -0.02 -11.61 -57.32 0.16 -0.09 11.76 -17.79 -0.36zm68 36.78c6.19,-4.36 15.42,-15.94 16.5,-26.84 -1.93,-0.17 -8.23,-0.45 -9.97,0.23 -2.17,14.43 -3.4,15.11 -6.53,26.61zm-41.66 0.37c-0.44,-2.85 -6.55,-14.98 -7.77,-27.3l-8.86 0.04c0.27,13.44 8.56,22.23 16.63,27.26z"/>
  <circle class="fil1" cx="62.65" cy="62.65" r="62.65"/>
 </g>
</svg>
