<?xml version="1.0" encoding="UTF-8"?>
<!DOCTYPE svg PUBLIC "-//W3C//DTD SVG 1.1//EN" "http://www.w3.org/Graphics/SVG/1.1/DTD/svg11.dtd">
<!-- Creator: CorelDRAW 2019 (64-Bit) -->
<svg xmlns="http://www.w3.org/2000/svg" xml:space="preserve" width="2.7231in" height="2.7231in" version="1.1" style="shape-rendering:geometricPrecision; text-rendering:geometricPrecision; image-rendering:optimizeQuality; fill-rule:evenodd; clip-rule:evenodd"
viewBox="0 0 125.3 125.3"
 xmlns:xlink="http://www.w3.org/1999/xlink"
 xmlns:xodm="http://www.corel.com/coreldraw/odm/2003">
 <defs>
  <style type="text/css">
   <![CDATA[
    .fil2 {fill:none}
    .fil0 {fill:aqua}
    .fil1 {fill:white;fill-rule:nonzero}
   ]]>
  </style>
 </defs>
 <g id="Layer_x0020_1">
  <metadata id="CorelCorpID_0Corel-Layer"/>
  <path class="fil0" d="M62.65 15.94c25.72,0 46.55,20.83 46.55,46.55 0,25.72 -20.83,46.54 -46.55,46.54 -25.72,0 -46.54,-20.83 -46.54,-46.54 0,-25.72 20.83,-46.55 46.54,-46.55zm-0.69 55.08c16.87,0 18.3,-0.38 31.25,-4.89 0,16.86 -13.67,30.54 -30.54,30.54 -16.87,0 -30.34,-13.67 -30.34,-30.54 9.04,2.66 12.76,4.89 29.62,4.89z"/>
  <g id="_2130884517104">
   <polygon class="fil1" points="33.95,46.02 45.64,46.02 38.98,34.47 45.6,30.67 58.89,53.68 33.95,53.68 "/>
   <polygon class="fil1" points="91.67,53.68 66.74,53.68 80.02,30.67 86.64,34.47 79.98,46.02 91.67,46.02 "/>
  </g>
  <circle class="fil2" cx="62.65" cy="62.65" r="62.65"/>
 </g>
</svg>
