<?xml version="1.0" encoding="UTF-8"?>
<!DOCTYPE svg PUBLIC "-//W3C//DTD SVG 1.1//EN" "http://www.w3.org/Graphics/SVG/1.1/DTD/svg11.dtd">
<!-- Creator: CorelDRAW 2019 (64-Bit) -->
<svg xmlns="http://www.w3.org/2000/svg" xml:space="preserve" width="2.7231in" height="2.7231in" version="1.1" style="shape-rendering:geometricPrecision; text-rendering:geometricPrecision; image-rendering:optimizeQuality; fill-rule:evenodd; clip-rule:evenodd"
viewBox="0 0 125.3 125.3"
 xmlns:xlink="http://www.w3.org/1999/xlink"
 xmlns:xodm="http://www.corel.com/coreldraw/odm/2003">
 <defs>
  <style type="text/css">
   <![CDATA[
    .fil1 {fill:none}
    .fil0 {fill:aqua}
   ]]>
  </style>
 </defs>
 <g id="Layer_x0020_1">
  <metadata id="CorelCorpID_0Corel-Layer"/>
  <path class="fil0" d="M39.58 83.58c11.28,7.91 14.29,-0.58 17,-5.18l12.46 -0.09c2.07,3.95 1.77,5.75 5.63,7.41 5.14,2.2 8.15,0.17 11.23,-2.02 4.25,2.74 17.94,21.44 24.48,7.9 4.17,-8.62 2.29,-27.11 -0.39,-36.1 -5.06,-16.98 -16.04,-30.85 -33.52,-23.48 -6.35,2.68 -6.62,5.33 -15.5,4.93 -8.31,-0.38 -16.9,-12.56 -31.21,-3.98 -21.57,12.94 -26.12,86.82 4.71,55.32 1.67,-1.71 3.44,-3.03 5.1,-4.7zm-8.88 -33.32c-0.44,3.27 -0.27,6.04 0.93,8.11l6.08 0.12 -0.14 6.55 1.26 0.54 0.35 0.14c7.22,-0.15 6.5,-0.24 6.74,-3.72 0.03,-0.48 -0.01,-1.76 0.1,-2.14 0.64,-2.31 -0.77,0.01 1,-1.51l5.52 -0.03 0.7 -4.14c-0.06,-5.46 -1.72,-4.19 -7.26,-4.06 -0.47,-5.79 1.09,-9.73 -7.73,-6.86l-0.69 6.7 -6.88 0.31zm46.07 22.94c-4.73,2.63 -1.68,9.99 3.51,7.96 5.64,-2.2 2.09,-11.08 -3.51,-7.96zm-32.07 0.09c-5.48,3.42 -0.39,10.23 4.19,7.63 4.94,-2.8 0.67,-10.67 -4.19,-7.63zm37.11 -31.36c-4.74,2.63 -1.68,9.99 3.51,7.96 5.64,-2.2 2.09,-11.08 -3.51,-7.96zm0 18.07c-4.74,2.63 -1.68,9.99 3.51,7.96 5.64,-2.2 2.09,-11.08 -3.51,-7.96zm-9.73 -8.34c-4.74,2.63 -1.68,9.99 3.51,7.96 5.64,-2.2 2.09,-11.08 -3.51,-7.96zm19.37 0c-4.73,2.63 -1.68,9.99 3.51,7.96 5.64,-2.2 2.09,-11.08 -3.51,-7.96z"/>
  <circle class="fil1" cx="62.65" cy="62.65" r="62.65"/>
 </g>
</svg>
