<?xml version="1.0" encoding="UTF-8"?>
<!DOCTYPE svg PUBLIC "-//W3C//DTD SVG 1.1//EN" "http://www.w3.org/Graphics/SVG/1.1/DTD/svg11.dtd">
<!-- Creator: CorelDRAW 2019 (64-Bit) -->
<svg xmlns="http://www.w3.org/2000/svg" xml:space="preserve" width="2.84482in" height="2.84482in" version="1.1" style="shape-rendering:geometricPrecision; text-rendering:geometricPrecision; image-rendering:optimizeQuality; fill-rule:evenodd; clip-rule:evenodd"
viewBox="0 0 264.46 264.46"
 xmlns:xlink="http://www.w3.org/1999/xlink"
 xmlns:xodm="http://www.corel.com/coreldraw/odm/2003">
 <defs>
  <style type="text/css">
   <![CDATA[
    .fil0 {fill:none}
    .fil1 {fill:white}
   ]]>
  </style>
 </defs>
 <g id="Layer_x0020_1">
  <metadata id="CorelCorpID_0Corel-Layer"/>
  <circle class="fil0" cx="132.23" cy="132.23" r="132.23"/>
  <path class="fil1" d="M133.18 205.68l-0 -7.46 0 0 -0 -10.16 0 -7.46c-1.42,-0.15 -10.5,-0.17 -20.03,-0.15 -10.25,-0.03 -25.73,0.06 -31.85,0.08 -4.26,-0.27 -5.05,-1.68 -5.05,-7.77l0 -73.34 0 -7.46c0,-0.6 -0,-1.16 -0,-1.72 0.17,-4.99 1.16,-6.04 5.75,-6.22 6.78,0.03 21.24,0.11 31.01,0.08 9.62,0.02 18.75,0 20.18,-0.15l0 -17.67 -0 0 0 -7.46c-6.09,-0.09 -12.22,-0.09 -18.35,-0.07 -7.09,-0.03 -14.2,0.02 -21.3,0.04 -3.86,-0.06 -8.75,-0.23 -12.71,-0.04 -4.86,-0.1 -10.62,-0.23 -14.21,0.35 -5.22,0.85 -9.6,3.49 -12.34,6.45 -6.59,7.08 -6.6,14.18 -6.39,24.19 -0.18,4.24 0.11,9 0.11,14.6l0 65.06c0,2.12 -0.03,4 0,5.73l0 1.73c0,9.61 -0.59,14.29 6.2,22.03 6.8,7.75 17.01,7.15 26.92,6.91 3.83,0.24 7.83,0.05 11.75,-0.03 6.14,0.02 14.56,0.05 20.9,0.03 9.07,0.02 18.3,0 19.42,-0.13z"/>
  <path class="fil1" d="M159.63 103.86l-56.22 0 0.01 56.92 56.13 0 0.08 46.63c0.94,-0.46 4.06,-3.61 5.26,-4.63l28.39 -25.72c0.95,-0.77 1.66,-1.55 2.6,-2.32 3.44,-2.83 12.28,-11.02 15.59,-14.14l5.15 -4.69c2.37,-1.9 7.74,-7.01 10.5,-9.41l10.29 -9.36c0.9,-0.84 1.59,-1.46 2.56,-2.36l2.04 -1.75c0.58,-0.62 0.32,-0.3 0.6,-0.9l-25.86 -23.3c-4.75,-4.28 -10.95,-10.17 -15.6,-14.14l-38.85 -35.14c-0.84,-0.74 -2.02,-1.73 -2.6,-2.37l-0.08 46.68z"/>
 </g>
</svg>
