<?xml version="1.0" encoding="UTF-8"?>
<!DOCTYPE svg PUBLIC "-//W3C//DTD SVG 1.1//EN" "http://www.w3.org/Graphics/SVG/1.1/DTD/svg11.dtd">
<!-- Creator: CorelDRAW 2019 (64-Bit) -->
<svg xmlns="http://www.w3.org/2000/svg" xml:space="preserve" width="2.77414in" height="2.7231in" version="1.1" style="shape-rendering:geometricPrecision; text-rendering:geometricPrecision; image-rendering:optimizeQuality; fill-rule:evenodd; clip-rule:evenodd"
viewBox="0 0 129.92 127.53"
 xmlns:xlink="http://www.w3.org/1999/xlink"
 xmlns:xodm="http://www.corel.com/coreldraw/odm/2003">
 <defs>
  <style type="text/css">
   <![CDATA[
    .fil1 {fill:none}
    .fil0 {fill:aqua}
   ]]>
  </style>
 </defs>
 <g id="Layer_x0020_1">
  <metadata id="CorelCorpID_0Corel-Layer"/>
  <path class="fil0" d="M-0 109.68l0 0.06 101.95 0.15 -59.39 -21.59c-16.79,-5.75 -15.4,-7.5 -20.83,-1.67 -1.36,1.46 -2.74,2.97 -4.21,4.53 -1.72,1.83 -15.3,16.81 -17.53,18.51zm56.96 -77.51c-26.67,5.7 -17.06,45.78 8.9,39.21 9.27,-2.34 17.57,-11.68 14.9,-23.9 -2.11,-9.68 -11.6,-17.92 -23.8,-15.31zm11.12 59.76c1.43,0.92 37.18,13.62 42.08,15.33 3.58,1.25 3.19,1.66 8.26,1.64 3.84,-0.02 7.67,-0.01 11.5,-0.01l-10.78 -12.59c-7.04,-7.42 -10.78,-17.06 -21.67,-14.42l-29.4 10.05zm-41.83 -41.64l-0.06 3.04c1.79,1.37 7.35,5.67 10.76,3.53 0.07,-0.12 0.22,-9.01 0.22,-10.56 -4.79,-0.36 -8.53,1.97 -10.92,3.99zm22.59 22.7c-1.14,-1.24 -2.38,-1.76 -3.85,-3.14 -1.49,-1.4 -2.01,-2.19 -3.7,-3.82 -4.48,1.72 -5.26,10.03 -3.97,11.46 1.58,1.75 4.71,0.4 6.56,-0.32 2.89,-1.12 3.93,-1.61 4.97,-4.18zm24.48 0c1.45,2.7 1.48,2.77 4.6,4.03 7.17,2.91 8.94,0.4 6.54,-6.52 -0.99,-2.87 -1.24,-3.47 -3.56,-4.5 -1.61,1.5 -2.05,2.24 -3.44,3.56 -1.44,1.37 -3.05,2.19 -4.15,3.42zm22.58 -22.62c-2.55,-2.11 -5.89,-4.42 -10.91,-4.08 0.03,2.73 0.53,4.63 0.24,7.49 -0.27,2.84 -1.14,4 2.48,3.65 1.72,-0.17 3.97,-1.37 5.44,-2.14 2.34,-1.23 3.05,-1.75 2.74,-4.91zm-55.4 -12.62l8.27 -7.05c-1.59,-4.39 -9.16,-6.12 -10.92,-5.06 -4.18,2.5 2.34,11.6 2.66,12.11zm32.91 -7.05c1.4,1.3 2.89,2.21 4.15,3.33 1.62,1.46 1.82,2.71 4.11,3.72 0.15,-0.24 6.8,-9.58 2.66,-12.1 -1.73,-1.05 -9.43,0.65 -10.92,5.05zm-6.91 44.84c-4.81,0.64 -6.09,0.62 -10.82,0 -0.46,4.31 1.96,11.31 5.39,11.25 3.56,-0.06 5.83,-7.17 5.42,-11.25zm-10.81 -47.46c4.45,-0.7 6.33,-0.73 10.79,0.01 0.51,-4.47 -2.16,-11.7 -5.83,-11.24 -3.08,0.4 -5.43,6.89 -4.97,11.23z"/>
  <circle class="fil1" cx="64.96" cy="63.77" r="63.77"/>
 </g>
</svg>
