<?xml version="1.0" encoding="UTF-8"?>
<!DOCTYPE svg PUBLIC "-//W3C//DTD SVG 1.1//EN" "http://www.w3.org/Graphics/SVG/1.1/DTD/svg11.dtd">
<!-- Creator: CorelDRAW 2019 (64-Bit) -->
<svg xmlns="http://www.w3.org/2000/svg" xml:space="preserve" width="2.7231in" height="2.7231in" version="1.1" style="shape-rendering:geometricPrecision; text-rendering:geometricPrecision; image-rendering:optimizeQuality; fill-rule:evenodd; clip-rule:evenodd"
viewBox="0 0 125.3 125.3"
 xmlns:xlink="http://www.w3.org/1999/xlink"
 xmlns:xodm="http://www.corel.com/coreldraw/odm/2003">
 <defs>
  <style type="text/css">
   <![CDATA[
    .fil1 {fill:none}
    .fil0 {fill:aqua}
   ]]>
  </style>
 </defs>
 <g id="Layer_x0020_1">
  <metadata id="CorelCorpID_0Corel-Layer"/>
  <g id="_2130598251056">
   <path class="fil0" d="M40.72 103.28l2.64 0c1.37,-0.5 4.02,-0.67 5.74,-1.26 8.16,-2.83 7.62,-6.46 7.62,-13.74 -0,-9.76 -0.22,-19.83 0.01,-29.6l34.94 -11.69 -0.1 26.53c-5.06,-1.92 -9.38,-2.65 -14.93,-0.85 -4.03,1.3 -9.08,4.13 -8.15,9.68 1.46,8.66 17.35,10.07 24.79,5.5 5.07,-3.1 4.18,-7.4 4.18,-14.57l0 -37.32c0,-11 1.2,-12.07 -3.39,-15l-1.86 0 -19.42 6.57c-23.16,7.76 -21.9,4.71 -21.9,17.58l0.01 41.02c-4.63,-1.25 -6.58,-2.43 -12.07,-1.5 -13.15,2.21 -12.87,11.37 -8.36,14.92 4.07,3.2 8,2.83 10.24,3.74z"/>
  </g>
  <circle class="fil1" cx="62.65" cy="62.65" r="62.65"/>
 </g>
</svg>
