<?xml version="1.0" encoding="UTF-8"?>
<!DOCTYPE svg PUBLIC "-//W3C//DTD SVG 1.1//EN" "http://www.w3.org/Graphics/SVG/1.1/DTD/svg11.dtd">
<!-- Creator: CorelDRAW 2019 (64-Bit) -->
<svg xmlns="http://www.w3.org/2000/svg" xml:space="preserve" width="5.40919in" height="1.23583in" version="1.1" style="shape-rendering:geometricPrecision; text-rendering:geometricPrecision; image-rendering:optimizeQuality; fill-rule:evenodd; clip-rule:evenodd"
viewBox="0 0 4095.87 935.78"
 xmlns:xlink="http://www.w3.org/1999/xlink">
 <defs>
  <style type="text/css">
   <![CDATA[
    .fil1 {fill:none;fill-rule:nonzero}
    .fil4 {fill:#2E3092;fill-rule:nonzero}
    .fil2 {fill:url(#id3);fill-rule:nonzero}
    .fil0 {fill:url(#id4);fill-rule:nonzero}
    .fil3 {fill:url(#id5);fill-rule:nonzero}
   ]]>
  </style>
    <clipPath id="id0" style="clip-rule:nonzero">
     <path d="M659.45 293.06c-0.23,-36.19 -15.16,-75.19 -39.13,-99.01 -23.77,-23.62 -56.7,-38.21 -93.22,-38.21 -36.46,0 -69.47,14.78 -93.36,38.66 -23.89,23.89 -38.67,56.9 -38.67,93.38 0,23.84 6.22,46.52 17.48,66.01l0 0.31c7.81,13.51 18.14,25.7 30.61,35.88 -45.64,-29.31 -99.26,-45.77 -155.28,-45.77 -14.39,0 -28.53,1.06 -42.36,3.1 -4.15,-19.4 -6.29,-39.33 -6.29,-59.53 0,-79.49 32.23,-151.46 84.34,-203.56 52.09,-52.1 124.07,-84.32 203.55,-84.32 78.94,0 150.63,32.02 202.8,83.85 51.95,51.63 84.28,123.15 84.78,202.4 -52.84,-10.09 -104.88,-5.57 -155.23,6.8z"/>
    </clipPath>
    <clipPath id="id1" style="clip-rule:nonzero">
     <path d="M651.71 566.14c-24.65,42.06 -40.14,76.21 -54.58,109.1 -14.46,32.95 -29.74,61.89 -69.23,115.59 -24.79,37.48 -57.88,68.2 -96.15,90.33l0.08 0.13c-43.28,24.99 -92.76,38.78 -143.94,38.78 -79.49,0 -151.46,-32.23 -203.56,-84.32 -52.1,-52.1 -84.32,-124.07 -84.32,-203.56 0,-79.49 32.23,-151.46 84.32,-203.56 52.1,-52.1 124.07,-84.32 203.56,-84.32 56.66,0 110.89,16.86 156.86,46.79 14.03,9.13 27.26,17.7 39.52,29.13 -22.76,39.78 -56.51,95.01 -81.8,152.17 -20.86,-47.15 -63.28,-72.24 -114.59,-72.24 -36.47,0 -69.48,14.78 -93.37,38.67 -23.89,23.89 -38.67,56.9 -38.67,93.37 0,36.47 14.77,69.48 38.67,93.37 23.89,23.89 56.9,38.66 93.37,38.66 23.83,0 46.51,-6.22 66.02,-17.48l0.3 0c19.3,-11.14 35.89,-27.45 47.81,-47.8l-0.05 -0.04 0.38 -0.51 0.11 -0.19 0.02 0.01c21.75,-29.59 40.94,-71.22 59.57,-108.39 18.46,-36.84 35.95,-69.31 55.26,-101.55l-0.05 -0.03c25.52,-44.19 62.08,-80.06 105.24,-105.02l-0.08 -0.13c43.28,-24.99 92.76,-38.78 143.94,-38.78 79.49,0 151.46,32.23 203.56,84.32 52.1,52.1 84.32,124.07 84.32,203.56 0,79.49 -32.23,151.46 -84.32,203.56 -52.1,52.1 -124.07,84.32 -203.56,84.32 -75.38,0 -144.43,-28.7 -198.5,-80.47 60.48,-83.24 62.18,-94 84.58,-143.56 23.15,43.52 64.55,68.18 113.92,68.18 36.47,0 69.48,-14.77 93.37,-38.66 23.89,-23.89 38.67,-56.9 38.67,-93.37 0,-36.47 -14.78,-69.48 -38.67,-93.37 -23.89,-23.89 -56.9,-38.67 -93.37,-38.67 -23.83,0 -46.52,6.22 -66.02,17.48l-0.3 0c-19.53,11.28 -36.29,27.85 -48.23,48.54l-0.07 -0.04z"/>
    </clipPath>
    <clipPath id="id2" style="clip-rule:nonzero">
     <path d="M431.65 383.07c-43.03,-24.91 -92.39,-38.75 -143.77,-38.75 -14.39,0 -28.53,1.06 -42.36,3.1 -3.76,-17.6 -5.88,-35.65 -6.24,-53.94 14.54,0.85 29.2,2.82 43.88,5.97 55.4,11.88 122.3,52.47 160.97,91.37l-12.48 -7.75z"/>
    </clipPath>
  <linearGradient id="id3" gradientUnits="userSpaceOnUse" x1="5001.44" y1="828.14" x2="5001.52" y2="-230.99">
   <stop offset="0" style="stop-opacity:1; stop-color:white"/>
   <stop offset="1" style="stop-opacity:1; stop-color:aqua"/>
  </linearGradient>
  <linearGradient id="id4" gradientUnits="userSpaceOnUse" xlink:href="#id3" x1="5001.46" y1="609" x2="5001.5" y2="-169.86">
  </linearGradient>
  <linearGradient id="id5" gradientUnits="userSpaceOnUse" xlink:href="#id3" x1="5001.44" y1="828.14" x2="5001.52" y2="-230.99">
  </linearGradient>
 </defs>
 <g id="Layer_x0020_1">
  <g id="_2130861402880">
   <path class="fil0" d="M659.45 293.06c-0.23,-36.19 -15.16,-75.19 -39.13,-99.01 -23.77,-23.62 -56.7,-38.21 -93.22,-38.21 -36.46,0 -69.47,14.78 -93.36,38.66 -23.89,23.89 -38.67,56.9 -38.67,93.38 0,23.84 6.22,46.52 17.48,66.01l0 0.31c7.81,13.51 18.14,25.7 30.61,35.88 -45.64,-29.31 -99.26,-45.77 -155.28,-45.77 -14.39,0 -28.53,1.06 -42.36,3.1 -4.15,-19.4 -6.29,-39.33 -6.29,-59.53 0,-79.49 32.23,-151.46 84.34,-203.56 52.09,-52.1 124.07,-84.32 203.55,-84.32 78.94,0 150.63,32.02 202.8,83.85 51.95,51.63 84.28,123.15 84.78,202.4 -52.84,-10.09 -104.88,-5.57 -155.23,6.8z"/>
   <g style="clip-path:url(#id0)">
   </g>
   <path id="1" class="fil1" d="M659.45 293.06c-0.23,-36.19 -15.16,-75.19 -39.13,-99.01 -23.77,-23.62 -56.7,-38.21 -93.22,-38.21 -36.46,0 -69.47,14.78 -93.36,38.66 -23.89,23.89 -38.67,56.9 -38.67,93.38 0,23.84 6.22,46.52 17.48,66.01l0 0.31c7.81,13.51 18.14,25.7 30.61,35.88 -45.64,-29.31 -99.26,-45.77 -155.28,-45.77 -14.39,0 -28.53,1.06 -42.36,3.1 -4.15,-19.4 -6.29,-39.33 -6.29,-59.53 0,-79.49 32.23,-151.46 84.34,-203.56 52.09,-52.1 124.07,-84.32 203.55,-84.32 78.94,0 150.63,32.02 202.8,83.85 51.95,51.63 84.28,123.15 84.78,202.4 -52.84,-10.09 -104.88,-5.57 -155.23,6.8z"/>
   <path class="fil2" d="M651.71 566.14c-24.65,42.06 -40.14,76.21 -54.58,109.1 -14.46,32.95 -29.74,61.89 -69.23,115.59 -24.79,37.48 -57.88,68.2 -96.15,90.33l0.08 0.13c-43.28,24.99 -92.76,38.78 -143.94,38.78 -79.49,0 -151.46,-32.23 -203.56,-84.32 -52.1,-52.1 -84.32,-124.07 -84.32,-203.56 0,-79.49 32.23,-151.46 84.32,-203.56 52.1,-52.1 124.07,-84.32 203.56,-84.32 56.66,0 110.89,16.86 156.86,46.79 14.03,9.13 27.26,17.7 39.52,29.13 -22.76,39.78 -56.51,95.01 -81.8,152.17 -20.86,-47.15 -63.28,-72.24 -114.59,-72.24 -36.47,0 -69.48,14.78 -93.37,38.67 -23.89,23.89 -38.67,56.9 -38.67,93.37 0,36.47 14.77,69.48 38.67,93.37 23.89,23.89 56.9,38.66 93.37,38.66 23.83,0 46.51,-6.22 66.02,-17.48l0.3 0c19.3,-11.14 35.89,-27.45 47.81,-47.8l-0.05 -0.04 0.38 -0.51 0.11 -0.19 0.02 0.01c21.75,-29.59 40.94,-71.22 59.57,-108.39 18.46,-36.84 35.95,-69.31 55.26,-101.55l-0.05 -0.03c25.52,-44.19 62.08,-80.06 105.24,-105.02l-0.08 -0.13c43.28,-24.99 92.76,-38.78 143.94,-38.78 79.49,0 151.46,32.23 203.56,84.32 52.1,52.1 84.32,124.07 84.32,203.56 0,79.49 -32.23,151.46 -84.32,203.56 -52.1,52.1 -124.07,84.32 -203.56,84.32 -75.38,0 -144.43,-28.7 -198.5,-80.47 60.48,-83.24 62.18,-94 84.58,-143.56 23.15,43.52 64.55,68.18 113.92,68.18 36.47,0 69.48,-14.77 93.37,-38.66 23.89,-23.89 38.67,-56.9 38.67,-93.37 0,-36.47 -14.78,-69.48 -38.67,-93.37 -23.89,-23.89 -56.9,-38.67 -93.37,-38.67 -23.83,0 -46.52,6.22 -66.02,17.48l-0.3 0c-19.53,11.28 -36.29,27.85 -48.23,48.54l-0.07 -0.04z"/>
   <g style="clip-path:url(#id1)">
   </g>
   <path id="1" class="fil1" d="M651.71 566.14c-24.65,42.06 -40.14,76.21 -54.58,109.1 -14.46,32.95 -29.74,61.89 -69.23,115.59 -24.79,37.48 -57.88,68.2 -96.15,90.33l0.08 0.13c-43.28,24.99 -92.76,38.78 -143.94,38.78 -79.49,0 -151.46,-32.23 -203.56,-84.32 -52.1,-52.1 -84.32,-124.07 -84.32,-203.56 0,-79.49 32.23,-151.46 84.32,-203.56 52.1,-52.1 124.07,-84.32 203.56,-84.32 56.66,0 110.89,16.86 156.86,46.79 14.03,9.13 27.26,17.7 39.52,29.13 -22.76,39.78 -56.51,95.01 -81.8,152.17 -20.86,-47.15 -63.28,-72.24 -114.59,-72.24 -36.47,0 -69.48,14.78 -93.37,38.67 -23.89,23.89 -38.67,56.9 -38.67,93.37 0,36.47 14.77,69.48 38.67,93.37 23.89,23.89 56.9,38.66 93.37,38.66 23.83,0 46.51,-6.22 66.02,-17.48l0.3 0c19.3,-11.14 35.89,-27.45 47.81,-47.8l-0.05 -0.04 0.38 -0.51 0.11 -0.19 0.02 0.01c21.75,-29.59 40.94,-71.22 59.57,-108.39 18.46,-36.84 35.95,-69.31 55.26,-101.55l-0.05 -0.03c25.52,-44.19 62.08,-80.06 105.24,-105.02l-0.08 -0.13c43.28,-24.99 92.76,-38.78 143.94,-38.78 79.49,0 151.46,32.23 203.56,84.32 52.1,52.1 84.32,124.07 84.32,203.56 0,79.49 -32.23,151.46 -84.32,203.56 -52.1,52.1 -124.07,84.32 -203.56,84.32 -75.38,0 -144.43,-28.7 -198.5,-80.47 60.48,-83.24 62.18,-94 84.58,-143.56 23.15,43.52 64.55,68.18 113.92,68.18 36.47,0 69.48,-14.77 93.37,-38.66 23.89,-23.89 38.67,-56.9 38.67,-93.37 0,-36.47 -14.78,-69.48 -38.67,-93.37 -23.89,-23.89 -56.9,-38.67 -93.37,-38.67 -23.83,0 -46.52,6.22 -66.02,17.48l-0.3 0c-19.53,11.28 -36.29,27.85 -48.23,48.54l-0.07 -0.04z"/>
   <path class="fil3" d="M1661.83 760.49l0 -562.59 -41.27 0 0 290.48c0,43.41 0.43,82.5 1.29,117.28 0.86,34.78 2.72,68.58 5.59,101.41l-1.72 1.67c-14.9,-25.04 -31.67,-49.94 -50.29,-74.7 -18.63,-24.76 -41.13,-54.67 -67.49,-89.73l-262.23 -346.41 -39.55 0 0 562.59 41.27 0 0 -300.49c0,-41.74 -0.29,-78.74 -0.86,-111.02 -0.57,-32.27 -2,-64.27 -4.3,-95.99l2.58 -1.67c15.48,25.04 33.96,52.17 55.45,81.38 21.49,29.21 44.56,60.24 69.21,93.07l253.63 334.72 38.69 0zm431.18 -225.37c0,-13.36 -2.15,-30.47 -6.45,-51.33 -4.3,-20.87 -12.9,-41.32 -25.79,-61.35 -12.9,-20.03 -31.1,-37.14 -54.6,-51.33 -23.5,-14.19 -54.45,-21.29 -92.85,-21.29 -29.23,0 -56.46,5.15 -81.68,15.44 -25.22,10.3 -47,24.9 -65.34,43.82 -18.34,18.92 -32.81,42.01 -43.42,69.28 -10.61,27.27 -15.9,57.87 -15.9,91.82 0,28.93 5.01,55.65 15.05,80.13 10.03,24.48 24.21,45.63 42.56,63.44 18.34,17.81 40.55,31.72 66.63,41.74 26.08,10.02 55.17,15.02 87.27,15.02 10.32,0 20.21,-0.28 29.67,-0.83 9.46,-0.55 18.19,-1.39 26.22,-2.5l-3.44 -34.22c-13.75,1.67 -29.81,2.5 -48.15,2.5 -24.64,0 -47.57,-3.62 -68.78,-10.85 -21.21,-7.23 -39.69,-18.22 -55.45,-32.97 -15.76,-14.74 -28.09,-32.97 -36.97,-54.67 -8.89,-21.7 -13.33,-47.3 -13.33,-76.79l343.04 0c1.15,-3.34 1.72,-6.68 1.72,-10.02 0,-3.9 0,-8.9 0,-15.02zm-43.85 -7.51l-298.34 0c2.29,-15.02 6.88,-31.02 13.75,-48 6.88,-16.97 16.48,-32.55 28.8,-46.74 12.32,-14.19 27.94,-26.02 46.86,-35.48 18.92,-9.46 41.56,-14.19 67.92,-14.19 30.95,0 55.74,5.57 74.37,16.69 18.63,11.13 32.95,24.48 42.98,40.07 10.03,15.58 16.48,31.44 19.34,47.58 2.87,16.14 4.3,29.49 4.3,40.07zm505.12 24.21c0,-27.27 -4.73,-53.14 -14.19,-77.63 -9.46,-24.48 -22.78,-45.91 -39.98,-64.27 -17.2,-18.36 -37.97,-32.97 -62.33,-43.82 -24.36,-10.85 -51.73,-16.28 -82.11,-16.28 -42.99,0 -78.81,8.76 -107.47,26.29 -28.66,17.53 -50.73,39.93 -66.2,67.19l-1.72 0 -3.44 -83.47 -40.41 0c1.14,21.7 2,43.27 2.58,64.69 0.57,21.43 0.86,42.99 0.86,64.69 0,1.11 0,8.9 0,23.37 0,14.47 0.15,34.92 0.43,61.35 0.29,26.43 0.43,54.95 0.43,85.56 0,30.05 0,61.49 0,94.32 0,32.83 0,62.88 0,90.15 0,13.36 -2.3,26.71 -6.88,40.06 -4.58,13.36 -8.89,23.65 -12.9,30.88 -4.02,7.24 -6.31,11.41 -6.88,12.52l42.13 8.35c0,0 1.29,-2.64 3.87,-7.93 2.58,-5.29 5.59,-12.38 9.03,-21.29 3.43,-8.9 6.45,-18.78 9.02,-29.63 2.58,-10.85 3.87,-21.84 3.87,-32.97l0 -155.26 1.72 0c17.2,28.38 40.27,49.11 69.21,62.19 28.95,13.08 59.76,19.62 92.43,19.62 28.09,0 54.74,-4.87 79.96,-14.61 25.22,-9.74 47.43,-23.79 66.63,-42.15 19.2,-18.36 34.39,-41.18 45.57,-68.44 11.18,-27.27 16.77,-58.43 16.77,-93.49zm-42.13 1.67c0,27.82 -4.01,53.14 -12.03,75.96 -8.03,22.81 -19.34,42.15 -33.96,58.01 -14.62,15.86 -32.38,28.1 -53.31,36.73 -20.92,8.63 -44.56,12.94 -70.93,12.94 -19.49,0 -37.69,-2.92 -54.59,-8.76 -16.91,-5.84 -32.1,-13.49 -45.57,-22.95 -13.47,-9.46 -25.07,-20.59 -34.82,-33.39 -9.74,-12.8 -16.62,-26.43 -20.63,-40.9 -2.86,-11.13 -4.3,-21.7 -4.3,-31.72l0 -70.95c0,-5.57 0.86,-11.41 2.58,-17.53 1.72,-6.12 3.44,-11.96 5.16,-17.53 5.73,-18.36 14.04,-34.36 24.93,-48 10.89,-13.63 23.21,-25.04 36.97,-34.22 13.75,-9.18 28.8,-16.14 45.14,-20.87 16.34,-4.73 33.1,-7.1 50.29,-7.1 25.8,0 48.86,4.59 69.21,13.77 20.35,9.18 37.69,21.56 52.02,37.14 14.33,15.58 25.22,33.67 32.67,54.26 7.45,20.59 11.18,42.29 11.18,65.11zm277.29 -193.65l-130.69 0 0 -88.48 -42.13 12.52 0 75.96 -75.66 0 -8.6 32.55 53.31 0 30.95 0 0 251.25c0,18.92 2,37 6.02,54.25 4.01,17.25 11.17,31.44 21.49,42.57 17.2,20.03 42.7,30.05 76.52,30.05 13.76,0 25.94,-1.11 36.54,-3.34 10.61,-2.22 19.63,-4.73 27.08,-7.51l-5.16 -31.72c-6.31,2.23 -13.75,4.04 -22.35,5.43 -8.6,1.39 -19.2,2.09 -31.81,2.09 -25.22,0 -42.56,-8.35 -52.01,-25.04 -9.46,-16.69 -14.19,-37.28 -14.19,-61.77l0 -256.26 122.09 0 8.6 -32.55zm407.11 400.66c-6.31,-14.47 -11.32,-30.19 -15.05,-47.16 -3.73,-16.97 -5.59,-33.53 -5.59,-49.67l0 -303.83 -42.13 0 0 242.9c0,8.9 -1,17.39 -3.01,25.46 -2,8.07 -4.44,15.16 -7.31,21.29 -10.89,23.37 -28.66,43.4 -53.31,60.1 -24.64,16.69 -52.73,25.04 -84.26,25.04 -22.93,0 -42.27,-3.89 -58.03,-11.69 -15.76,-7.79 -28.66,-18.64 -38.69,-32.55 -10.03,-13.91 -17.19,-30.6 -21.49,-50.08 -4.3,-19.48 -6.45,-40.9 -6.45,-64.27l0 -216.19 -42.13 0 0 224.54c0,42.85 5.88,76.51 17.63,101 11.75,24.49 25.93,43.13 42.56,55.93 16.62,12.8 33.67,20.87 51.16,24.21 17.48,3.34 32.24,5.01 44.28,5.01 20.64,0 39.55,-2.64 56.75,-7.93 17.19,-5.29 32.38,-12.24 45.56,-20.87 13.18,-8.62 24.65,-18.36 34.39,-29.21 9.75,-10.85 17.77,-21.84 24.08,-32.97l1.72 0c0,0.56 0.29,3.2 0.86,7.93 0.57,4.73 1.43,10.85 2.58,18.36 1.15,7.51 2.29,14.33 3.44,20.45 2.29,8.9 5.01,18.23 8.17,27.96 3.15,9.74 4.73,14.61 4.73,14.61l39.55 -8.35zm450.09 0c-0.57,-1.11 -2.72,-5.84 -6.45,-14.19 -3.73,-8.35 -7.88,-19.2 -12.47,-32.55 -4.58,-13.36 -6.88,-25.32 -6.88,-35.89l0 -145.24c0,-27.82 -3.15,-51.61 -9.46,-71.37 -6.31,-19.76 -14.33,-36.45 -24.07,-50.08 -9.75,-13.63 -20.64,-24.48 -32.67,-32.55 -12.04,-8.07 -24.08,-14.19 -36.11,-18.36 -12.03,-4.17 -23.21,-6.96 -33.53,-8.35 -10.32,-1.39 -18.63,-2.09 -24.93,-2.09 -18.92,0 -36.68,2.37 -53.31,7.1 -16.62,4.73 -31.67,11.27 -45.13,19.62 -13.47,8.35 -25.37,17.95 -35.68,28.8 -10.32,10.85 -18.63,22.4 -24.93,34.64l-1.72 0 -3.44 -80.13 -39.54 0c1.14,16.14 2,32.28 2.58,48.41 0.57,16.14 0.86,32.28 0.86,48.41l0 303.83 42.13 0 0 -244.57c0,-6.12 0.72,-12.52 2.15,-19.2 1.44,-6.68 3.01,-12.24 4.73,-16.69 4.59,-12.8 11.47,-24.9 20.64,-36.31 9.17,-11.41 19.78,-21.56 31.81,-30.47 12.04,-8.9 25.51,-15.86 40.41,-20.87 14.9,-5.01 30.66,-7.51 47.28,-7.51 23.5,0 43.56,4.03 60.18,12.1 16.63,8.07 30.09,18.92 40.41,32.55 10.32,13.63 17.77,29.36 22.36,47.16 4.58,17.81 6.88,36.45 6.88,55.93l0 145.24c0,18.36 2.29,35.48 6.88,51.33 4.59,15.86 8.74,27.55 12.47,35.06 3.73,7.51 5.88,11.83 6.45,12.94l42.13 -16.69zm449.23 -205.34c0,-28.38 -5.02,-55.09 -15.05,-80.13 -10.03,-25.04 -24.36,-46.88 -42.99,-65.53 -18.63,-18.64 -41.27,-33.25 -67.92,-43.82 -26.65,-10.57 -56.6,-15.86 -89.85,-15.86 -28.66,0 -56.17,4.87 -82.54,14.61 -26.37,9.74 -49.58,23.93 -69.64,42.57 -20.06,18.64 -36.11,41.18 -48.15,67.61 -12.03,26.43 -18.05,56.34 -18.05,89.73 0,29.49 5.3,56.9 15.91,82.22 10.6,25.32 25.36,47.16 44.28,65.52 18.92,18.36 41.41,32.69 67.49,42.99 26.08,10.3 54.6,15.44 85.55,15.44 25.22,0 50.87,-4.17 76.95,-12.52 26.08,-8.35 49.87,-21.29 71.36,-38.81 21.49,-17.53 38.98,-39.79 52.44,-66.77 13.47,-26.99 20.21,-59.4 20.21,-97.24zm-42.99 2.5c0,28.93 -5.02,54.53 -15.05,76.79 -10.03,22.26 -23.22,41.04 -39.55,56.34 -16.34,15.31 -35.25,26.85 -56.74,34.64 -21.49,7.79 -43.71,11.69 -66.63,11.69 -22.35,0 -43.85,-3.89 -64.48,-11.69 -20.63,-7.79 -38.83,-19.2 -54.6,-34.22 -15.76,-15.02 -28.51,-33.39 -38.26,-55.09 -9.75,-21.7 -14.62,-46.47 -14.62,-74.29 0,-23.37 3.73,-45.77 11.18,-67.19 7.45,-21.43 18.48,-40.48 33.1,-57.18 14.61,-16.69 32.96,-29.91 55.03,-39.65 22.07,-9.74 47.72,-14.61 76.95,-14.61 30.37,0 56.46,5.57 78.24,16.69 21.78,11.13 39.84,25.18 54.16,42.15 14.33,16.97 24.79,35.75 31.38,56.34 6.59,20.59 9.89,40.34 9.89,59.26z"/>
   <path class="fil4" d="M431.65 383.07c-43.03,-24.91 -92.39,-38.75 -143.77,-38.75 -14.39,0 -28.53,1.06 -42.36,3.1 -3.76,-17.6 -5.88,-35.65 -6.24,-53.94 14.54,0.85 29.2,2.82 43.88,5.97 55.4,11.88 122.3,52.47 160.97,91.37l-12.48 -7.75z"/>
   <g style="clip-path:url(#id2)">
   </g>
   <path id="1" class="fil1" d="M431.65 383.07c-43.03,-24.91 -92.39,-38.75 -143.77,-38.75 -14.39,0 -28.53,1.06 -42.36,3.1 -3.76,-17.6 -5.88,-35.65 -6.24,-53.94 14.54,0.85 29.2,2.82 43.88,5.97 55.4,11.88 122.3,52.47 160.97,91.37l-12.48 -7.75z"/>
  </g>
 </g>
</svg>
