<?xml version="1.0" encoding="UTF-8"?>
<!DOCTYPE svg PUBLIC "-//W3C//DTD SVG 1.1//EN" "http://www.w3.org/Graphics/SVG/1.1/DTD/svg11.dtd">
<!-- Creator: CorelDRAW 2019 (64-Bit) -->
<svg xmlns="http://www.w3.org/2000/svg" xml:space="preserve" width="2.84482in" height="2.84482in" version="1.1" style="shape-rendering:geometricPrecision; text-rendering:geometricPrecision; image-rendering:optimizeQuality; fill-rule:evenodd; clip-rule:evenodd"
viewBox="0 0 490.44 490.44"
 xmlns:xlink="http://www.w3.org/1999/xlink"
 xmlns:xodm="http://www.corel.com/coreldraw/odm/2003">
 <defs>
  <style type="text/css">
   <![CDATA[
    .fil1 {fill:none}
    .fil0 {fill:black}
   ]]>
  </style>
 </defs>
 <g id="Layer_x0020_1">
  <metadata id="CorelCorpID_0Corel-Layer"/>
  <path class="fil0" d="M98.61 348.87c-8.13,28.24 10.33,43.21 38.68,36.91l85.34 -81.99c32.51,21.97 85.95,28.52 128.19,-1.83 39.37,-28.28 57.64,-83.15 43.18,-129.42 -11.96,-38.28 -42.39,-67.77 -81.13,-78.17 -22.57,-6.05 -51.51,-4.14 -73.03,4.46 -45.29,18.11 -74.29,62.62 -72.22,113.95 1.33,32.86 9.17,36.42 14.65,52.41l-83.66 83.67zm176.22 -219.19c-40.61,5.06 -73.22,38.68 -68.68,85.65 3.81,39.41 40.03,72.76 86.09,67.93 39.6,-4.15 72.77,-40.82 67.55,-86.38 -4.41,-38.56 -40.35,-72.76 -84.97,-67.2zm-22.12 45.08l6.52 7.03c10.86,-8.25 23.78,-12.99 38.1,-6.25 4.79,2.26 6.95,4.97 10.36,6.65l6.29 -7c0.18,0.1 0.37,0.19 0.55,0.28l12.77 -14.22c-24.57,-30.61 -77.27,-18.73 -87.89,-0.37l13.04 14.07 0.27 -0.2z"/>
  <circle class="fil1" cx="245.22" cy="245.22" r="245.22"/>
 </g>
</svg>
